<svg version="1.0" xmlns="http://www.w3.org/2000/svg" preserveAspectRatio="xMidYMid meet" viewBox="69 38 163.53 208.5">
<metadata>
Created by potrace 1.10, written by Peter Selinger 2001-2011
</metadata>
<g transform="translate(0.000000,300.000000) scale(0.100000,-0.100000)" fill="#000000" stroke="none">
<path d="M2042 2545 c-14 -48 -28 -75 -37 -75 -12 0 -73 30 -127 64 -32 20 -30 -3 7 -69 20 -37 34 -69 31 -72 -3 -3 -43 -5 -89 -4 -95 2 -158 -15 -225 -61 -52 -36 -98 -104 -107 -160 -7 -39 -8 -40 -38 -34 -17 4 -54 9 -82 12 -62 8 -73 -3 -82 -77 -3 -30 -9 -60 -13 -68 -4 -7 -39 -24 -78 -36 -116 -37 -198 -89 -298 -190 -78 -78 -99 -106 -137 -186 -56 -117 -77 -208 -77 -341 0 -309 197 -582 489 -680 89 -30 106 -32 231 -33 145 0 216 13 317 60 186 85 335 250 398 440 32 96 45 278 26 374 -35 180 -159 365 -311 466 l-68 45 5 74 c4 46 2 76 -5 80 -6 3 -47 13 -93 21 -45 7 -86 18 -91 23 -16 16 26 96 64 125 18 14 54 31 78 36 59 14 177 14 185 0 4 -6 -9 -36 -28 -67 -20 -31 -34 -58 -33 -60 2 -1 29 9 61 23 32 14 64 24 71 21 7 -3 16 -22 19 -43 13 -73 27 -115 35 -107 4 5 18 39 30 77 13 37 27 67 32 67 5 0 32 -16 61 -35 47 -32 77 -43 77 -30 0 3 -13 32 -30 65 -16 33 -30 64 -30 69 0 12 20 18 93 26 31 4 55 10 52 15 -3 5 -35 23 -70 42 -36 18 -65 35 -65 39 0 4 23 35 50 69 28 35 48 65 46 68 -5 5 -66 -15 -129 -42 l-38 -17 -13 33 c-8 18 -17 54 -21 81 -4 26 -10 47 -14 47 -3 0 -16 -34 -29 -75z m-497 -680 c202 -42 378 -196 454 -395 21 -56 25 -82 25 -190 1 -107 -3 -136 -23 -199 -64 -196 -249 -364 -451 -412 -72 -16 -201 -17 -270 0 -220 53 -401 231 -456 451 -24 96 -15 263 19 352 111 289 407 455 702 393z"/>
<path d="M1362 1744 c-77 -39 -104 -139 -59 -216 14 -24 37 -50 52 -58 35 -19 113 -17 152 3 94 49 100 194 11 260 -36 27 -114 32 -156 11z"/>
<path d="M1020 1538 c-54 -27 -80 -73 -80 -138 0 -95 63 -154 156 -147 93 7 151 75 141 165 -12 110 -120 170 -217 120z"/>
<path d="M1731 1540 c-100 -23 -153 -140 -98 -221 37 -56 84 -82 138 -76 85 7 143 71 141 155 -1 96 -87 163 -181 142z"/>
<path d="M1361 1344 c-25 -21 -31 -33 -31 -65 0 -55 34 -89 90 -89 55 0 90 34 90 87 -1 84 -85 121 -149 67z"/>
<path d="M1120 1142 c-49 -27 -72 -63 -78 -122 -13 -139 123 -226 243 -155 98 57 105 201 13 266 -44 32 -130 37 -178 11z"/>
<path d="M1565 1141 c-23 -10 -53 -33 -68 -50 -23 -27 -27 -42 -27 -90 0 -63 22 -107 71 -143 63 -47 176 -27 227 40 23 30 27 45 27 98 0 75 -20 108 -85 142 -53 27 -92 28 -145 3z"/>
</g>
</svg>